<svg width="1456" height="1080" viewBox="0 0 1456 1080" fill="none" xmlns="http://www.w3.org/2000/svg">
<rect width="1456" height="1080" fill="#E5E5E5"/>
<rect width="1921" height="1080" transform="translate(-465)" fill="white"/>
<mask id="mask0_3919_47157" style="mask-type:alpha" maskUnits="userSpaceOnUse" x="0" y="0" width="1456" height="1080">
<rect width="1456" height="1080" fill="#C4C4C4"/>
</mask>
<g mask="url(#mask0_3919_47157)">
<g clip-path="url(#clip0_3919_47157)">
<path d="M870.568 966.957L891.27 1199.43L892.037 1201.2H1459.04V1046.89L1457.89 1046.39L1024.3 902.199L870.568 966.957Z" fill="url(#paint0_linear_3919_47157)"/>
</g>
<path opacity="0.2" d="M21.3493 1086.44C26.3528 1068.76 33.1757 1051.68 45.0023 1035.5C50.4607 1028.01 57.2837 1020.51 65.4713 1013.62C75.0235 1005.53 85.9403 997.74 97.312 990.549C132.792 968.074 173.73 951.294 222.4 944.401C255.151 939.907 287.901 939.008 321.107 940.506C394.795 943.503 462.115 958.186 520.338 988.151C550.36 1003.73 575.832 1022.01 593.117 1045.09C594.027 1046.28 594.482 1048.08 598.121 1048.08C599.03 1044.79 599.94 1041.19 601.305 1037.89C614.496 999.239 647.246 970.771 701.83 953.991C745.043 940.806 790.529 938.708 836.926 944.401C858.759 947.098 877.864 953.99 896.513 961.782C898.788 962.681 900.607 964.778 903.791 963.579C907.43 943.802 921.986 927.621 942.455 914.136C963.834 900.352 989.761 892.261 1019.78 889.864C1049.8 887.467 1075.28 894.359 1100.29 905.446C1099.84 899.753 1098.47 895.258 1098.47 890.763C1098.47 853.905 1119.4 822.142 1156.7 795.173C1176.26 781.089 1201.27 772.399 1229.93 768.803C1243.58 767.005 1257.22 766.705 1270.87 767.604C1270.87 764.907 1268.14 764.308 1266.32 762.81C1250.4 750.524 1237.21 737.339 1229.02 722.056C1215.83 696.586 1211.28 670.516 1216.74 643.546C1225.38 600.096 1257.22 566.235 1311.81 541.364C1326.36 534.771 1342.28 529.078 1358.2 524.283C1371.39 520.388 1384.59 517.391 1398.23 514.694C1417.34 510.799 1436.44 508.701 1456 509.3V1073.85C1455.55 1076.55 1455.09 1079.25 1454.64 1081.94C1451.91 1099.62 1449.63 1117.3 1447.36 1134.98C1445.08 1158.96 1441.9 1182.63 1436.9 1206.3C1436.44 1208.7 1436.44 1211.7 1431.89 1213.49C1430.07 1210.2 1427.34 1208.4 1422.34 1208.7C1403.69 1210.2 1384.59 1211.1 1365.94 1212.59C1338.19 1214.69 1310.44 1217.09 1282.7 1217.69C1234.48 1218.89 1186.72 1219.49 1138.5 1220.39C1074.37 1221.58 1010.23 1223.08 946.094 1224.28C942.455 1224.28 938.816 1224.88 935.177 1225.18C925.17 1226.38 915.618 1227.88 905.611 1229.37C901.517 1229.97 897.423 1230.57 892.875 1231.17H31.8112C21.3493 1231.17 27.7174 1226.08 25.898 1221.88C19.5298 1206 15.8909 1190.12 14.5263 1173.94C12.7068 1145.17 13.1617 1115.51 21.3493 1086.44Z" fill="#2940D3"/>
<g filter="url(#filter0_d_3919_47157)">
<path d="M650.167 883.975C643.693 888.506 640.861 894.103 637.22 899.7C619.823 926.886 616.586 954.606 631.96 982.325C644.098 1004.18 664.732 1021.51 697.503 1032.17C712.473 1036.96 728.252 1039.36 744.435 1040.43C762.642 1041.5 780.848 1041.5 798.65 1038.03C801.077 1037.5 803.1 1037.23 804.719 1035.9C804.314 1035.37 803.91 1034.57 803.1 1034.3C782.871 1023.64 766.283 1010.84 756.168 994.586C748.481 982.325 745.244 969.798 748.886 956.738C751.718 946.876 751.718 946.876 739.176 941.279C722.992 934.349 708.427 926.353 694.266 917.558C677.678 907.43 663.922 895.702 650.167 883.975Z" fill="#2940D3"/>
<path d="M650.165 883.974C663.921 895.968 677.677 907.429 694.265 917.824C708.426 926.619 722.991 934.615 739.174 941.545C752.121 947.142 751.717 947.142 748.885 957.004C745.243 970.064 748.48 982.591 756.167 994.852C766.282 1011.11 782.465 1023.64 803.099 1034.57C803.908 1034.83 804.313 1035.63 804.718 1036.16C814.832 1032.97 814.832 1032.97 809.573 1027.1C792.175 1008.71 782.465 988.988 784.488 967.132C785.297 959.136 787.725 951.94 794.603 945.01C796.221 943.144 798.244 941.279 799.053 939.146C797.03 939.146 795.412 938.347 793.389 937.547C777.61 930.617 763.045 922.888 748.885 914.625C730.274 903.431 711.663 892.237 693.861 880.243C686.578 875.445 678.082 871.18 670.395 866.649C661.494 871.18 655.02 877.044 650.165 883.974Z" fill="#121625"/>
<path d="M670.394 866.383C678.082 870.914 686.578 875.179 693.861 879.977C711.662 891.971 730.273 903.165 748.884 914.359C762.64 922.622 777.61 930.351 793.389 937.281C795.007 938.081 796.626 938.614 799.053 938.88C808.359 932.75 807.954 929.019 802.29 921.556C799.862 917.824 796.221 914.626 792.175 911.694C765.068 893.303 738.365 874.646 709.235 857.854C708.021 857.055 706.807 856.255 705.594 855.722C693.051 849.059 685.364 849.858 678.082 859.454C675.654 862.119 672.417 863.985 670.394 866.383Z" fill="#E13AB0"/>
<path d="M1197.17 896.236C1205.26 892.771 1210.52 887.44 1215.78 882.376C1233.17 865.851 1242.08 847.46 1245.31 827.737C1247.74 813.611 1240.86 800.817 1230.75 788.823C1204.04 756.306 1161.16 738.981 1107.35 732.585C1101.28 731.785 1095.21 731.252 1089.14 731.519C1095.62 740.581 1099.26 750.442 1102.9 760.038C1107.35 772.032 1108.56 784.292 1108.97 796.286C1108.97 804.815 1109.37 813.611 1105.33 822.14C1103.71 825.605 1105.73 826.937 1110.18 827.737C1118.68 829.07 1126.77 831.735 1134.46 834.667C1158.73 843.729 1176.94 856.256 1187.46 873.581C1191.91 880.777 1194.33 888.507 1197.17 896.236Z" fill="#2940D3"/>
<path d="M1197.17 896.235C1194.33 888.506 1191.91 880.777 1187.45 873.314C1176.53 855.989 1158.73 843.462 1134.45 834.4C1126.77 831.468 1119.08 829.069 1110.18 827.47C1105.32 826.67 1103.3 825.338 1105.32 821.873C1109.37 813.61 1108.97 804.548 1108.97 796.019C1108.97 784.025 1107.35 771.764 1102.9 759.771C1099.25 749.909 1095.61 740.314 1089.14 731.251C1081.86 729.652 1074.58 730.452 1067.29 730.452C1060.41 730.452 1053.54 730.985 1046.66 731.518C1046.66 733.117 1046.66 734.716 1047.47 736.049C1050.7 743.245 1053.94 750.442 1057.18 757.638C1064.87 776.296 1071.74 794.953 1071.34 814.41C1070.93 824.005 1072.15 823.205 1058.39 823.205C1047.87 823.205 1045.85 824.538 1044.23 831.468C1045.85 834.933 1049.49 837.598 1053.13 840.263C1056.37 842.662 1060.41 843.728 1064.87 842.929C1079.43 841.063 1092.78 843.462 1106.13 846.927C1122.32 850.925 1136.48 857.322 1148.61 865.584C1161.16 874.38 1172.08 883.975 1179.36 895.169C1183.81 902.099 1186.24 902.632 1195.14 897.302C1195.95 897.302 1196.36 896.769 1197.17 896.235Z" fill="#121625"/>
<path d="M1043.83 832.001C1045.04 825.071 1047.06 823.738 1057.99 823.738C1071.74 823.738 1070.53 824.271 1070.94 814.943C1071.34 795.486 1064.46 776.828 1056.77 758.171C1053.94 750.975 1050.3 743.778 1047.06 736.582C1046.26 734.983 1046.26 733.65 1046.26 732.051C1037.76 732.85 1029.67 733.383 1021.17 734.716C1012.67 736.049 1010.65 737.915 1011.46 743.778C1012.67 753.906 1016.32 763.502 1019.55 773.363C1025.62 790.155 1030.88 806.947 1038.16 823.205C1039.78 825.87 1040.59 829.335 1043.83 832.001Z" fill="#2940D3"/>
<path d="M1001.75 897.301C1011.87 890.638 1024.41 886.906 1036.55 882.375C1041.81 880.243 1048.68 879.71 1052.33 875.979C1042.21 875.712 1042.62 875.712 1042.21 869.315C1041.81 855.722 1043.43 842.129 1040.59 828.802C1038.57 821.073 1037.76 813.077 1035.33 805.081C1030.48 789.355 1024.41 773.896 1015.51 758.97C1003.37 737.914 988.401 717.658 971.004 698.467C957.248 683.275 941.469 668.882 924.072 655.289C910.721 644.628 895.346 635.299 879.163 626.504C873.903 623.572 867.834 620.906 862.17 618.241C858.934 616.642 856.101 616.375 852.865 619.307C844.368 627.303 832.231 632.9 821.307 638.764C804.719 647.826 786.512 655.289 767.497 662.219C732.702 675.013 697.099 685.94 657.854 690.738C633.174 693.67 608.494 697.934 583.005 696.602C585.028 707.263 586.646 718.191 589.479 728.852C593.12 742.712 597.166 756.305 603.235 769.632C610.517 786.69 619.013 803.481 629.937 820.007C640.052 835.465 651.38 850.658 665.136 865.051C674.442 874.646 684.557 883.708 695.885 892.237C701.549 896.502 707.213 901.033 713.282 905.031C734.725 918.89 759.405 930.351 785.299 940.48C793.39 943.678 801.482 946.876 809.169 950.341C814.429 952.74 819.689 954.339 826.162 952.207C827.376 951.674 829.399 952.207 831.017 951.94C833.04 950.341 834.658 950.075 836.681 951.674C845.178 948.742 853.674 945.544 862.575 942.612C897.774 931.151 932.973 919.956 967.767 908.496C971.004 907.429 974.645 906.896 977.073 904.764C968.981 905.297 963.722 902.099 958.867 898.634C945.515 889.572 930.95 881.309 914.362 874.646C905.057 870.914 896.156 866.916 884.423 869.848C883.209 870.115 881.59 869.848 880.377 869.848C878.354 869.582 880.377 868.249 879.567 866.916C878.758 865.584 878.354 865.692 880.377 864.893C885.636 863.027 884.937 862.637 891.41 862.104C907.593 861.305 925.019 861.842 938.775 868.239C952.127 874.369 964.126 880.51 973.836 889.039C979.501 893.836 980.31 899.167 976.668 904.764C979.096 904.764 981.523 905.031 982.737 903.431C983.546 902.365 985.165 902.099 986.783 902.099C989.615 899.167 994.066 897.568 998.921 896.768C1000.13 897.301 1000.94 897.301 1001.75 897.301ZM920.026 700.067C926.904 705.664 932.973 710.195 938.637 714.993C941.065 716.858 943.492 718.724 945.111 720.856C955.225 733.916 960.08 748.043 960.89 762.435C961.699 779.227 955.225 794.952 942.279 809.345C927.309 826.403 905.866 838.664 879.567 846.926C856.911 854.123 832.635 856.788 806.742 854.123C786.917 851.991 767.901 848.792 750.1 842.662C715.71 830.668 692.648 812.81 687.389 786.423C686.579 783.225 685.366 779.76 690.625 776.295C693.053 779.494 695.885 781.626 697.908 785.091C703.572 796.818 709.236 808.013 725.824 816.275C736.748 821.606 746.863 827.469 759.81 831.201C779.23 836.798 798.65 841.862 819.284 844.261C826.567 845.061 834.254 845.86 839.918 841.329C841.536 839.997 844.773 839.73 847.201 839.197C863.384 834.932 879.972 831.467 895.346 825.071C915.98 816.542 933.378 806.413 939.042 789.888C939.446 789.089 939.851 788.289 940.256 787.223C947.134 771.764 947.943 756.039 943.088 740.313C939.851 729.385 932.973 719.257 923.667 709.662C920.431 707.796 916.79 705.131 920.026 700.067Z" fill="#2940D3"/>
<path d="M867.431 583.858C867.431 582.792 866.621 581.726 865.408 580.926C837.491 564.934 809.575 548.942 777.612 536.149C755.36 527.353 732.299 521.223 706 519.357C689.008 518.025 673.229 520.423 657.854 524.155C648.549 526.287 641.266 531.085 635.198 536.149C614.564 552.674 604.449 572.397 599.189 593.187C596.762 603.049 593.93 612.644 591.907 622.506C591.098 626.77 591.098 631.035 591.502 635.033C591.502 638.498 590.288 641.163 585.433 642.762C580.174 644.361 579.365 647.56 579.365 651.025C579.365 659.021 582.601 667.017 581.792 675.013C607.686 675.279 633.579 673.68 659.068 670.748C674.443 669.149 689.817 666.484 704.787 662.486C727.443 656.355 748.887 649.159 769.925 640.896C807.147 625.971 841.132 607.846 867.431 583.858Z" fill="#2940D3"/>
<path d="M867.429 583.858C841.131 607.846 807.145 625.971 769.114 641.163C748.48 649.426 726.633 656.622 703.976 662.752C689.006 666.75 674.036 669.149 658.257 671.015C632.768 673.947 606.875 675.546 580.981 675.279C580.981 676.878 580.981 678.744 580.981 680.343C585.027 680.343 589.073 680.343 593.119 680.61C595.142 680.61 597.974 680.343 597.974 682.209C597.974 684.075 595.546 684.608 593.119 684.608C589.073 684.341 585.432 683.808 581.386 683.542C580.577 688.073 583.813 692.337 583.409 696.868C608.898 698.201 633.577 693.937 658.257 691.005C697.502 686.207 733.106 675.279 767.9 662.486C786.916 655.556 805.122 647.826 821.71 639.031C833.039 633.167 844.772 627.303 853.268 619.574C856.505 616.642 858.933 616.909 862.574 618.508C868.238 621.173 874.307 623.838 879.566 626.77C895.345 635.832 910.72 644.894 924.476 655.556C941.873 669.149 957.652 683.542 971.408 698.734C988.805 717.925 1003.77 738.181 1015.91 759.237C1024.41 774.163 1030.88 789.622 1035.74 805.347C1038.16 813.077 1039.38 821.073 1041 829.069C1044.23 842.662 1042.21 856.255 1042.62 869.582C1043.02 875.979 1042.62 875.979 1052.73 876.245C1052.73 873.047 1052.73 869.582 1054.35 866.383C1055.16 865.051 1053.94 862.919 1055.97 862.119C1058.8 861.053 1061.63 860.253 1062.84 857.854C1064.46 854.923 1069.72 858.121 1072.55 856.255C1072.96 855.989 1073.77 855.989 1074.58 855.989C1076.6 842.395 1079.03 829.069 1078.62 815.476C1078.22 796.019 1073.36 777.095 1064.87 758.438C1051.92 729.385 1029.67 703.532 1003.77 679.011C989.21 665.151 973.835 651.558 957.247 638.764C938.232 624.105 918.407 610.245 897.368 597.185C888.872 591.321 880.376 585.191 867.429 583.858Z" fill="#E5E9F2"/>
<path d="M983.547 903.964C981.928 905.564 979.501 905.297 977.478 905.297C975.05 907.429 971.409 907.962 968.172 909.029C932.973 920.49 897.774 931.684 862.98 943.145C854.079 946.077 845.583 949.009 837.086 952.207C835.063 952.207 833.04 952.207 831.422 952.473C830.613 953.806 828.994 954.606 827.376 955.139C820.903 957.538 817.666 961.003 819.689 966.067C823.33 966.067 826.971 965.534 829.804 963.668C832.231 961.802 835.872 960.203 839.514 961.003C843.964 962.069 847.605 960.736 851.247 959.936C858.529 958.337 866.216 957.005 873.499 955.139C878.759 953.806 884.423 952.473 889.683 951.674C893.324 951.141 896.56 951.407 897.774 954.073C898.988 956.472 897.37 958.337 893.728 959.403C892.11 959.936 890.492 960.203 888.873 960.736C876.331 963.668 864.194 966.6 851.651 969.265C846.392 970.331 844.369 972.197 845.178 975.662C845.987 979.66 847.201 983.658 848.01 987.389C851.651 1000.45 855.697 1013.51 859.338 1026.57C864.598 1026.84 869.453 1025.77 873.904 1024.7C901.82 1018.84 929.332 1012.44 956.035 1004.45C969.791 1000.18 983.547 995.918 997.303 992.187C1004.18 990.321 1009.04 986.323 1015.51 983.924C1011.87 981.792 1012.68 978.86 1013.49 976.461C1016.32 967.133 1015.91 958.071 1013.08 948.742C1011.06 941.546 1007.42 934.616 1001.35 928.486C999.326 926.353 997.707 924.221 992.448 925.82C989.211 926.886 987.593 925.021 985.974 923.421C984.356 921.556 986.783 920.49 987.997 919.423C989.616 918.091 992.043 917.291 994.471 916.225C1016.32 907.429 1038.17 898.634 1058.4 888.239C1063.25 885.574 1064.06 883.175 1064.06 879.71C1052.73 881.576 1043.43 885.84 1032.91 889.039C1025.22 891.437 1017.94 894.103 1010.25 896.502C1007.42 897.568 1004.18 898.634 1000.54 898.367C1000.54 898.9 1000.54 899.167 1000.54 899.7C996.494 902.099 992.043 903.698 986.379 903.698C986.783 903.698 985.165 903.964 983.547 903.964Z" fill="#BABFC5"/>
<path d="M1030.26 977.324C1040.78 975.458 1050.09 971.726 1059.39 968.262C1084.07 959.999 1106.73 949.338 1126.96 936.811C1132.63 933.346 1137.88 929.614 1141.93 925.083C1136.67 922.951 1133.03 919.752 1128.58 916.821C1115.23 908.025 1100.66 900.296 1084.88 893.366C1074.36 888.835 1074.36 888.835 1063.85 893.632C1061.42 894.698 1058.59 895.764 1056.16 896.831C1043.21 902.694 1030.67 908.292 1017.72 914.155C1014.08 915.754 1013.68 917.087 1016.51 919.486C1025.41 927.748 1029.05 937.077 1029.86 946.939C1031.07 957.067 1030.26 967.195 1030.26 977.324Z" fill="#BABFC5"/>
<path d="M1030.07 978.86C1030.07 968.732 1030.88 958.87 1030.07 948.742C1029.26 938.88 1025.62 929.552 1016.72 921.289C1013.89 918.89 1014.3 917.558 1017.94 915.958C1030.88 910.361 1043.43 904.498 1056.37 898.634C1058.8 897.568 1061.63 896.502 1064.06 895.435C1074.58 890.371 1074.58 890.371 1085.1 895.169C1100.88 902.099 1115.44 909.828 1128.79 918.624C1133.24 921.556 1136.89 924.754 1142.14 926.886C1148.62 923.688 1152.26 919.423 1155.9 914.892C1159.95 909.562 1158.33 904.231 1151.45 900.5C1131.22 889.838 1109.78 880.243 1087.12 871.98C1085.5 873.58 1083.48 873.313 1081.05 873.313C1074.98 874.379 1070.53 877.311 1064.87 879.177C1064.87 882.642 1064.06 885.041 1059.2 887.706C1038.97 898.101 1017.53 907.163 995.28 915.692C992.852 916.491 990.425 917.291 988.806 918.89C987.188 919.956 984.76 921.023 986.783 922.888C988.402 924.488 990.02 926.087 993.257 925.287C998.112 923.688 1000.13 926.087 1002.16 927.952C1008.63 934.083 1011.87 941.013 1013.89 948.209C1016.72 957.538 1017.53 966.6 1014.3 975.928C1013.49 978.327 1012.68 981.259 1016.32 983.391C1021.17 982.059 1025.62 980.726 1030.07 978.86Z" fill="#BABFC5"/>
<path d="M859.743 1026.04C856.102 1012.98 852.056 999.916 848.414 986.856C847.201 982.858 846.392 979.127 845.582 975.129C844.773 971.664 846.796 969.798 852.056 968.732C864.598 966.066 876.736 963.135 889.278 960.203C890.896 959.936 892.514 959.403 894.133 958.87C897.774 957.804 899.392 955.938 898.179 953.539C896.965 950.874 893.324 950.608 890.087 951.141C884.423 952.207 879.163 953.273 873.903 954.606C866.621 956.471 859.338 958.07 851.651 959.403C848.01 960.203 844.369 961.535 839.918 960.469C836.277 959.67 832.636 961.535 830.208 963.135C827.376 965 823.735 965.533 820.093 965.533C818.475 981.259 820.498 996.984 824.948 1012.44C825.353 1013.51 825.758 1014.58 825.758 1015.64C826.567 1024.44 835.468 1030.57 852.46 1027.9C854.079 1027.9 857.315 1027.64 859.743 1026.04Z" fill="#BABFC5"/>
<path d="M1074.58 855.722C1073.77 855.722 1072.96 855.722 1072.56 855.988C1069.72 857.854 1064.46 854.656 1062.84 857.587C1061.23 859.986 1058.8 860.786 1055.97 861.852C1053.94 862.652 1055.16 864.784 1054.35 866.116C1052.33 869.315 1052.73 872.513 1052.73 875.978C1068.51 872.78 1075.79 865.85 1074.58 855.722Z" fill="#2940D3"/>
<path d="M581.386 683.275C585.432 683.541 589.073 684.074 593.119 684.341C595.546 684.341 598.378 683.808 597.974 681.942C597.974 680.076 595.142 680.609 593.119 680.343C589.073 680.343 585.027 680.343 580.981 680.076C581.386 681.142 581.386 682.208 581.386 683.275Z" fill="#E1CCEB"/>
<path d="M1081.05 873.046C1083.48 873.046 1085.5 873.046 1087.12 871.713C1086.31 871.18 1085.91 870.647 1085.1 870.381C1083.48 869.848 1081.46 868.515 1080.24 870.114C1079.43 870.914 1080.65 872.246 1081.05 873.046Z" fill="#E1C7EA"/>
<path d="M920.025 700.066C917.193 704.864 920.835 707.796 923.262 710.461C932.568 720.056 939.446 730.185 942.682 741.113C947.133 756.838 946.728 772.563 939.85 788.022C939.446 788.822 939.041 789.622 938.637 790.688C932.972 807.213 915.575 817.074 894.941 825.87C879.971 832.267 863.383 835.732 846.795 839.996C844.368 840.529 841.131 841.062 839.513 842.129C833.444 846.66 825.757 845.86 818.879 845.06C798.245 842.662 778.825 837.597 759.404 832C746.458 828.269 736.343 822.405 725.419 817.074C708.831 808.812 703.167 797.618 697.503 785.89C695.884 782.425 693.052 780.293 690.22 777.094C684.96 780.559 686.579 784.024 686.983 787.223C692.243 813.343 715.304 831.201 749.694 843.461C767.496 849.591 786.512 853.056 806.336 854.922C832.23 857.587 856.505 854.656 879.162 847.726C905.46 839.463 926.903 827.203 941.873 810.145C954.82 795.485 961.293 780.026 960.484 763.235C959.675 748.575 954.82 734.716 944.705 721.656C943.087 719.523 940.659 717.658 938.232 715.792C932.972 710.461 926.903 705.664 920.025 700.066Z" fill="#2940D3"/>
<path d="M977.477 905.297C981.118 899.7 980.309 894.636 974.645 889.572C964.935 881.043 953.606 873.58 940.255 867.45C926.499 861.319 911.529 858.921 895.346 859.72C888.872 859.987 884.017 862.652 878.758 864.518C876.735 865.317 875.926 866.384 876.735 867.983C877.544 869.315 878.758 870.115 881.185 870.382C882.399 870.382 884.017 870.648 885.231 870.382C896.964 867.45 905.865 871.448 915.171 875.179C931.759 881.842 946.324 890.105 959.675 899.167C964.126 902.632 969.385 905.83 977.477 905.297Z" fill="#2940D3"/>
<path d="M987.591 902.632C993.256 902.366 997.706 901.033 1001.75 898.634C1000.94 898.101 1000.54 897.835 999.729 897.302C994.469 898.101 990.423 899.701 987.591 902.632Z" fill="#FFEAE4"/>
<path d="M831.016 952.208C833.039 952.208 835.062 952.208 836.681 951.942C834.658 950.342 832.635 950.609 831.016 952.208Z" fill="white"/>
<path d="M983.547 903.965C985.165 903.965 986.784 903.698 987.593 902.632C985.974 902.632 984.356 902.898 983.547 903.965Z" fill="#FFEAE4"/>
<path d="M999.73 897.302C1000.54 897.835 1000.94 898.101 1001.75 898.634C1002.16 898.101 1002.16 897.835 1001.75 897.302C1000.94 897.302 1000.13 897.302 999.73 897.302Z" fill="white"/>
<path d="M844.769 965.269C852.456 965.802 858.929 962.603 865.403 960.738C886.846 954.607 909.098 949.277 930.541 942.613C945.511 937.816 960.076 932.752 974.237 927.421C980.305 925.022 985.97 922.09 993.657 922.09C995.68 922.09 998.107 921.024 999.726 919.692C988.802 913.561 979.092 906.631 968.977 899.968C968.168 899.435 967.763 898.369 967.359 897.569C935.396 910.096 901.815 921.024 869.044 932.485C852.86 938.082 835.868 942.08 818.471 946.345C823.326 948.211 826.967 951.142 830.608 954.074C835.059 958.072 838.7 962.337 844.769 965.269Z" fill="#283252"/>
<path d="M1007.82 917.026C1024 910.096 1040.18 902.9 1056.37 895.97C1060.41 894.104 1064.86 892.505 1068.51 889.84C1062.03 880.511 1053.54 871.715 1048.28 862.12C1032.9 869.317 1017.53 876.513 1001.75 883.709C993.253 887.441 984.352 891.172 975.451 894.637C977.069 894.637 978.688 894.904 979.901 895.97C988.398 901.567 996.489 906.898 1004.99 912.495C1007.01 913.561 1007.82 915.16 1007.82 917.026Z" fill="#283252"/>
<path d="M1048.28 862.12C1053.13 871.982 1061.63 880.511 1068.51 889.84C1077.81 885.575 1087.12 881.044 1095.21 875.447C1096.42 874.647 1096.83 874.914 1096.42 870.116C1095.61 863.453 1093.19 856.79 1087.52 850.659C1086.71 849.86 1085.9 848.794 1084.69 847.994C1079.83 844.263 1079.83 843.996 1073.77 847.461C1065.27 852.525 1056.77 857.323 1048.28 862.12Z" fill="#283252"/>
<path d="M859.944 962.5C853.876 959.568 837.853 957.231 833.403 953.5C829.761 950.568 824.608 947.866 819.753 946C808.829 948.132 806.736 949.81 810.378 956.74C812.401 960.205 816.042 963.136 818.469 966.335C821.301 969.8 826.561 970.333 831.416 969.267C835.867 968.201 856.303 964.899 859.944 962.5Z" fill="#283252"/>
<path d="M1007.82 917.025C1007.82 915.16 1007.41 913.561 1005.39 912.228C996.894 906.897 988.803 901.3 980.306 895.703C979.093 894.903 977.474 894.637 975.856 894.37C972.619 894.903 969.787 896.236 967.36 897.569C967.764 898.368 968.169 899.434 968.978 899.967C979.093 906.631 988.803 913.561 999.727 919.691C1002.15 918.891 1004.99 918.092 1007.82 917.025Z" fill="#283252"/>
<path d="M924.879 765.635C927.711 755.507 920.428 744.046 915.978 732.052C915.168 730.186 913.55 728.854 911.932 727.521C907.886 723.79 903.84 720.325 904.245 715.527C904.245 713.661 903.031 712.062 900.603 710.996C891.298 706.198 882.801 700.601 871.878 697.669C867.427 696.337 862.572 695.271 860.145 691.806C859.335 690.473 856.503 689.94 854.076 689.673C846.389 689.407 838.701 688.074 831.014 688.074C824.136 688.341 817.663 687.808 810.785 687.275C800.67 686.475 791.365 689.14 782.464 691.539C767.899 695.537 754.547 700.601 742.41 707.265C730.677 713.661 725.012 722.457 719.753 731.253C715.707 738.449 712.066 745.912 713.279 753.908C713.279 754.441 713.279 755.241 713.279 756.04C708.829 770.699 718.134 782.96 729.463 794.687C735.532 800.818 743.623 806.148 750.097 812.012C751.311 813.078 752.929 813.878 754.547 814.677C771.54 821.341 789.342 826.405 809.571 827.471C812.403 827.738 815.64 827.205 818.068 829.07C821.304 831.736 825.35 831.469 830.205 830.669C853.671 826.938 874.71 820.275 891.702 808.547C893.725 807.215 895.748 805.349 898.58 804.816C902.626 804.283 903.84 802.417 905.458 800.285C908.29 796.82 912.336 794.154 917.596 792.555C921.237 791.489 922.046 789.623 922.856 787.491C924.879 781.361 924.474 774.697 924.879 765.635ZM910.313 754.174C909.909 776.297 899.794 791.756 879.969 804.016C858.931 817.076 833.037 823.473 804.716 819.209C758.189 812.279 727.845 790.956 725.417 758.439C724.203 742.98 731.89 729.12 747.265 717.393C765.067 703.533 787.319 696.603 814.426 696.603C835.869 696.603 854.885 701.401 871.473 709.93C894.939 722.19 909.504 737.916 910.313 754.174Z" fill="#82868C"/>
<path d="M725.417 758.439C725.822 764.569 727.44 770.166 729.463 775.497C739.578 798.419 766.685 813.611 804.716 819.208C809.167 819.742 813.213 820.275 817.258 820.541C835.06 821.341 851.648 817.876 866.618 811.212C870.664 809.347 874.305 807.481 878.351 805.082C878.756 804.816 879.565 804.283 879.969 804.016C899.39 791.756 909.909 776.83 910.313 754.974C910.313 754.707 910.313 754.441 910.313 754.174C909.1 737.916 894.939 722.19 871.473 709.663C854.885 700.868 835.465 696.07 814.426 696.337C806.335 696.337 798.647 696.87 791.769 698.202C774.777 701.134 759.807 707.531 747.265 717.126C740.791 721.924 735.936 727.255 732.295 732.852C730.272 736.05 728.654 738.982 727.44 742.447C725.822 747.511 725.013 752.842 725.417 758.439Z" fill="#E3E6EB"/>
<path d="M732.296 732.852C736.746 735.251 741.197 737.65 742.411 737.917C746.456 739.782 750.502 741.648 754.548 743.514C796.625 763.504 839.107 782.694 878.756 805.083C879.161 804.816 879.97 804.283 880.375 804.017C899.795 791.756 910.314 776.83 910.719 754.975C878.352 736.85 844.367 720.858 809.167 705.133C806.335 703.8 799.457 701.135 791.77 698.203C774.778 701.135 759.808 707.532 747.266 717.127C740.792 722.191 735.937 727.522 732.296 732.852Z" fill="#BABFC5"/>
<path d="M725.417 758.44C725.822 764.57 727.44 770.168 729.463 775.498C754.143 788.292 790.151 806.416 817.259 820.542C835.06 821.342 851.648 817.877 866.618 811.214C826.564 789.891 766.281 761.639 727.44 742.448C725.822 747.512 725.013 752.843 725.417 758.44Z" fill="#BABFC5"/>
<path d="M592.028 498.499C586.747 500.53 584.107 504.012 581.466 507.494C570.025 522.002 562.984 537.671 559.903 553.92C557.263 568.718 554.622 583.806 551.982 598.604C550.662 607.89 550.662 616.884 550.662 626.17C550.662 643.579 549.782 660.989 552.862 678.399C554.182 686.233 555.503 687.393 567.384 687.974C592.468 688.844 616.231 685.362 640.435 681.59C672.119 676.948 702.044 668.823 731.088 658.958C746.49 653.735 762.332 649.382 777.735 643.869C795.337 637.486 810.739 629.652 826.142 621.237C827.462 620.366 828.342 619.496 829.662 618.335C823.061 610.501 813.38 604.698 804.578 598.024C793.577 589.9 781.255 582.646 768.933 575.392C752.651 565.816 736.369 556.531 719.206 547.826C694.123 535.059 668.159 522.582 639.995 512.427C624.593 507.204 609.19 502.271 592.028 498.499Z" fill="#2940D3"/>
<path d="M754.953 837.598C812 859.987 892.917 850.392 932.162 806.947C981.926 752.841 936.208 681.41 842.748 666.75C808.763 661.42 776.396 664.618 746.457 676.612C743.22 679.544 746.861 682.476 746.457 685.408C746.052 690.738 741.602 693.67 733.51 693.937C727.441 694.203 724.609 691.538 720.563 689.939C716.922 691.805 715.303 693.67 712.067 696.336C712.876 696.869 713.281 697.402 714.09 697.668C721.372 701.666 721.372 701.933 717.731 707.797C716.113 710.195 714.899 712.861 712.876 715.259C697.097 736.316 696.288 758.438 705.189 780.827C709.639 792.288 720.563 801.083 731.892 809.612C738.365 814.676 746.457 818.941 754.144 823.205C763.449 828.536 763.449 831.468 754.953 837.598ZM818.878 825.338C766.686 826.137 715.303 797.618 714.494 756.306C713.685 718.991 758.999 688.606 814.832 688.873C873.497 689.406 918.811 720.324 918.811 758.438C918.406 801.083 866.214 825.871 818.878 825.338Z" fill="#283252"/>
<path d="M592.838 498.127C609.491 501.912 625.269 507.153 640.608 512.685C668.657 522.875 694.076 535.395 719.495 548.206C736.588 556.941 752.803 566.258 769.019 575.866C781.29 583.145 793.562 590.424 804.518 598.576C813.283 604.982 822.925 611.096 829.499 618.958C851.85 607.893 870.696 594.791 885.597 579.36C888.665 576.448 886.911 574.701 883.405 572.663C862.369 559.852 840.456 547.624 816.79 536.851C778.661 519.381 738.341 504.241 695.391 492.886C680.49 489.101 665.151 485.607 648.935 484.442C627.022 482.695 607.738 485.898 592.838 498.127Z" fill="#7C90F1"/>
<path d="M875.924 869.315C871.069 872.78 870.664 877.045 870.259 881.043C869.45 892.77 869.855 904.231 872.282 915.692C875.519 931.951 877.542 948.476 884.015 964.468C886.848 971.664 891.703 977.794 899.794 982.859C927.306 1000.98 958.055 1016.18 992.04 1028.44C996.491 1030.03 1000.94 1031.9 1006.2 1031.1C1007.01 1024.7 1005.39 1018.57 1003.77 1012.71C994.063 980.993 974.238 951.941 948.749 924.488C937.016 911.694 922.047 900.5 907.077 889.305C897.771 882.109 887.657 875.179 875.924 869.315Z" fill="#2940D3"/>
<path d="M875.924 869.315C887.657 875.179 897.367 882.108 907.077 889.305C922.047 900.499 937.016 911.694 948.75 924.487C974.239 951.94 994.063 980.992 1003.77 1012.71C1005.8 1018.84 1007.41 1024.97 1006.2 1031.1C1013.48 1030.83 1015.51 1027.37 1017.53 1023.64C1020.77 1016.71 1021.58 1009.78 1022.79 1002.58C1025.22 983.658 1024.81 964.734 1020.77 946.076C1019.15 938.347 1015.1 931.417 1007.82 925.553C1003.37 922.088 999.323 918.623 994.468 915.425C976.666 903.698 958.46 891.97 940.253 880.243C932.161 875.179 922.856 871.181 913.55 867.183C907.077 864.517 900.199 863.185 892.512 863.185C885.229 863.185 879.565 864.784 875.924 869.315Z" fill="#7C90F1"/>
<path d="M754.952 837.598C763.448 831.467 763.448 828.535 754.143 823.205C746.456 818.94 738.364 814.676 731.891 809.612C720.562 801.082 710.043 792.287 705.188 780.826C696.287 758.437 696.692 736.581 712.875 715.259C714.493 712.86 716.112 710.461 717.73 707.796C721.371 701.932 721.371 701.666 714.089 697.668C713.28 697.135 712.875 696.601 712.066 696.335C697.501 706.73 689.004 719.257 684.554 732.85C670.393 775.229 699.928 816.275 751.715 836.265C752.524 837.064 753.738 837.331 754.952 837.598Z" fill="#283252"/>
<path d="M720.158 690.206C723.799 692.338 727.44 694.47 733.105 694.204C741.196 693.671 746.456 691.805 748.074 685.941C748.884 683.009 748.479 680.077 746.051 676.879C736.341 679.811 727.44 684.342 720.158 690.206Z" fill="#283252"/>
</g>
<path opacity="0.2" d="M1420.73 477.529C1396.16 482.757 1371.54 486.718 1345.79 487.528C1333.88 487.913 1321.35 487.549 1308.96 486.166C1294.45 484.576 1279.69 482.102 1265.49 479.108C1221.14 469.783 1181.51 454.897 1150.86 431.311C1130.42 415.375 1114.52 397.818 1101.44 378.93C1071.99 337.163 1060.15 293.619 1071.7 248.172C1077.82 224.679 1089.4 202.465 1110.71 182.58C1111.82 181.54 1113.88 180.48 1112.24 178.484C1107.67 179.472 1102.72 180.594 1097.95 181.332C1043.23 191.529 992.545 186.404 946.759 164.034C910.638 146.279 887.479 122.277 873.739 94.2624C867.296 81.0712 867.376 67.485 868.795 53.7428C868.904 52.09 870.73 50.1462 867.782 48.9403C841.189 55.8632 814.21 55.1769 787.967 50.0312C760.936 44.5216 739.036 33.9498 722.473 18.5651C705.911 3.18041 703.119 -13.8985 705.825 -32.6198C698.847 -29.8029 693.792 -27.0275 688.121 -25.0005C641.62 -8.37934 592.11 -5.53151 541.265 -13.8271C514.676 -18.2036 492.431 -28.0062 474.971 -42.1019C466.549 -48.7756 460.017 -56.1249 454.998 -64.0147C451.595 -62.7985 452.07 -61.0314 451 -59.3578C442.679 -45.0856 431.993 -31.9048 416.405 -20.5225C390.218 -1.80135 359.379 12.4499 322.892 21.618C264.177 36.4719 207.098 34.2781 151.104 15.5563C136.223 10.5458 121.86 4.38148 108.632 -2.18824C97.7688 -7.66648 88.0397 -13.5501 78.4834 -19.8183C64.9535 -28.5398 53.6919 -38.0721 45.6276 -49.07L757.885 -303.658C761.493 -304.624 765.101 -305.591 768.708 -306.558C792.244 -313.034 815.575 -319.759 838.906 -326.484C870.176 -336.047 901.479 -344.976 933.601 -352.908C936.831 -353.739 940.612 -355.09 944.931 -353.406C941.593 -350.922 940.556 -348.614 943.19 -346.005C953.49 -336.452 963.24 -326.379 973.54 -316.826C988.699 -302.554 1004.24 -288.417 1017.5 -273.469C1040.76 -247.564 1063.05 -221.639 1085.93 -195.599C1116.37 -160.963 1147.18 -126.462 1177.61 -91.8257C1179.26 -89.8299 1181.65 -88.1043 1183.67 -86.2436C1189.7 -81.2955 1195.89 -76.7321 1202.3 -71.9191C1204.9 -69.9441 1531.39 -94.0503 1534.2 -91.8257L1598.61 406.523C1603.33 412.261 1594.03 411.065 1589.56 413.955C1572.39 424.61 1554 433.767 1534.2 441.813C1498.72 455.783 1461.09 468.912 1420.73 477.529Z" fill="#2940D3"/>
</g>
<defs>
<filter id="filter0_d_3919_47157" x="530.538" y="463.992" width="735.272" height="597.071" filterUnits="userSpaceOnUse" color-interpolation-filters="sRGB">
<feFlood flood-opacity="0" result="BackgroundImageFix"/>
<feColorMatrix in="SourceAlpha" type="matrix" values="0 0 0 0 0 0 0 0 0 0 0 0 0 0 0 0 0 0 127 0" result="hardAlpha"/>
<feMorphology radius="0.909459" operator="dilate" in="SourceAlpha" result="effect1_dropShadow_3919_47157"/>
<feOffset/>
<feGaussianBlur stdDeviation="9.54932"/>
<feColorMatrix type="matrix" values="0 0 0 0 0 0 0 0 0 0 0 0 0 0 0 0 0 0 0.07 0"/>
<feBlend mode="normal" in2="BackgroundImageFix" result="effect1_dropShadow_3919_47157"/>
<feBlend mode="normal" in="SourceGraphic" in2="effect1_dropShadow_3919_47157" result="shape"/>
</filter>
<linearGradient id="paint0_linear_3919_47157" x1="1249.92" y1="1205.27" x2="1067.72" y2="747.824" gradientUnits="userSpaceOnUse">
<stop stop-color="#61A9FF"/>
<stop offset="1" stop-color="white"/>
</linearGradient>
<clipPath id="clip0_3919_47157">
<rect width="588.467" height="299" fill="white" transform="matrix(-1 0 0 1 1459.04 902.199)"/>
</clipPath>
</defs>
</svg>
