<svg width="27" height="21" viewBox="0 0 27 21" fill="none" xmlns="http://www.w3.org/2000/svg">
<path d="M2.35714 8.41309H17.2143C17.7068 8.41309 18.1792 8.6238 18.5275 8.99887C18.8758 9.37395 19.0714 9.88265 19.0714 10.4131C19.0714 10.9435 18.8758 11.4522 18.5275 11.8273C18.1792 12.2024 17.7068 12.4131 17.2143 12.4131H2.35714C1.8646 12.4131 1.39223 12.2024 1.04395 11.8273C0.695663 11.4522 0.5 10.9435 0.5 10.4131C0.5 9.88265 0.695663 9.37395 1.04395 8.99887C1.39223 8.6238 1.8646 8.41309 2.35714 8.41309ZM20.9286 4.41309H2.35714C1.8646 4.41309 1.39223 4.20237 1.04395 3.8273C0.695663 3.45223 0.5 2.94352 0.5 2.41309C0.5 1.88265 0.695663 1.37395 1.04395 0.998872C1.39223 0.6238 1.8646 0.413086 2.35714 0.413086L20.9286 0.413086C21.4211 0.413086 21.8935 0.6238 22.2418 0.998872C22.5901 1.37395 22.7857 1.88265 22.7857 2.41309C22.7857 2.94352 22.5901 3.45223 22.2418 3.8273C21.8935 4.20237 21.4211 4.41309 20.9286 4.41309ZM2.35714 16.4131H24.6429C25.1354 16.4131 25.6078 16.6238 25.9561 16.9989C26.3043 17.3739 26.5 17.8827 26.5 18.4131C26.5 18.9435 26.3043 19.4522 25.9561 19.8273C25.6078 20.2024 25.1354 20.4131 24.6429 20.4131H2.35714C1.8646 20.4131 1.39223 20.2024 1.04395 19.8273C0.695663 19.4522 0.5 18.9435 0.5 18.4131C0.5 17.8827 0.695663 17.3739 1.04395 16.9989C1.39223 16.6238 1.8646 16.4131 2.35714 16.4131Z" fill="#2940D3"/>
</svg>
